# xmcd
#
# Track frame offsets: 
#        150
#        71595
#        78797
#        91042
#        95447
#        115255
#        117462
#        122052
#        134355
#        138315
#        143550
#        154375
#        160862
#        168270
#        178687
#        195782
#
# Disc length: 2946 seconds
#
# Revision: 3
# Processed by: cddbd v1.5.2PL0 Copyright (c) Steve Scherf et al.
# Submitted via: ExactAudioCopy v1.0b3
#
DISCID=cd0b8010
DTITLE=Nobuya Sugawa - Exhibition of Saxophone
DYEAR=2002
DGENRE=Classical
TTITLE0=Gershwin: Rhapsody in Blue
TTITLE1=Mussorgsky: Pictures at an Exhibition - Promenade
TTITLE2=Mussorgsky: Pictures at an Exhibition - 1. Gnomus 
TTITLE3=Mussorgsky: Pictures at an Exhibition - Promenade
TTITLE4=Mussorgsky: Pictures at an Exhibition - 2. Il Vecchio castello
TTITLE5=Mussorgsky: Pictures at an Exhibition - Promenade
TTITLE6=Mussorgsky: Pictures at an Exhibition - 3. Tuileries - Dispute
TTITLE6=d'enfants après jeux
TTITLE7=Mussorgsky: Pictures at an Exhibition - 4. Bydło
TTITLE8=Mussorgsky: Pictures at an Exhibition - Promenade
TTITLE9=Mussorgsky: Pictures at an Exhibition - 5. Ballet des poussins
TTITLE9=dans leurs coques
TTITLE10=Mussorgsky: Pictures at an Exhibition - 6. Samuel Goldenberg 
TTITLE10=und Schmuyle
TTITLE11=Mussorgsky: Pictures at an Exhibition - 7. Limoges - Le march
TTITLE11=e
TTITLE12=Mussorgsky: Pictures at an Exhibition - 8. Catacombae - Sepul
TTITLE12=chrum Romanum
TTITLE13=Mussorgsky: Pictures at an Exhibition - Cum mortuis in lingua
TTITLE13=mortua
TTITLE14=Mussorgsky: Pictures at an Exhibition - La cabane sur des pat
TTITLE14=tes de poule - Baba-Yaga
TTITLE15=Mussorgsky: Pictures at an Exhibition - La grande porte de Ki
TTITLE15=ev
EXTD=
EXTT0=
EXTT1=
EXTT2=
EXTT3=
EXTT4=
EXTT5=
EXTT6=
EXTT7=
EXTT8=
EXTT9=
EXTT10=
EXTT11=
EXTT12=
EXTT13=
EXTT14=
EXTT15=
PLAYORDER=
